<svg xmlns="http://www.w3.org/2000/svg" viewBox="0 0 302.99 430.76"><defs><style>.cls-1{fill:#f5f5f5;}.cls-2{fill:#007cc5;}.cls-3{fill:#008ed4;}.cls-4{fill:#ebecec;}.cls-5{fill:#008cc3;}.cls-6{fill:#d0e2ec;}.cls-7{fill:#c3ddeb;}.cls-8{fill:#fefefe;}</style></defs><title>css</title><g id="Calque_2" data-name="Calque 2"><g id="Calque_1-2" data-name="Calque 1"><path class="cls-1" d="M241.76,0l-.06,1.14c-2.14,1.75-4.71,1.4-7.16,1.41-10.8.05-21.59,0-32.39.05-5.21,0-5.58.58-5.84,5.71-.17,3.24.82,6.69-1.41,9.64-2.64-3.95-.65-8.34-1.17-12.49a38.29,38.29,0,0,1,0-5.46Z"/><path class="cls-1" d="M61.76,1V0h48l-.19,1.39c-1.73,1.29-3.77,1.19-5.75,1.2q-18,.08-35.93,0C65.73,2.58,63.53,2.6,61.76,1Z"/><path class="cls-2" d="M151.23,85.28c48.82,0,97.64.06,146.45-.1,4.37,0,5.67.87,5.23,5.5-3.08,33-5.89,66-8.76,99q-3.72,42.56-7.4,85.1-4.29,49-8.62,98c-.54,6.13-1.16,12.27-1.42,18.42-.13,3.11-1.14,4.69-4.27,5.58q-58.51,16.63-117,33.54a11.71,11.71,0,0,1-6.79-.18q-59.54-16.7-119.13-33.22c-3.55-1-4.53-2.68-4.81-6.17-3.13-39.67-6.46-79.33-9.69-119-2.48-30.37-4.87-60.74-7.36-91.11C5.22,150.46,2.78,120.26.06,90.08c-.38-4.3,1-4.88,4.73-4.87Q78,85.38,151.23,85.28Z"/><path d="M194.9,18c-1.24-4.93-.3-9.94-.61-14.9-.16-2.48,1.57-2,3-2q22.2,0,44.41.13c0,5.33-.23,10.68.11,16,.24,3.69-1.15,4.52-4.49,4.23s-6.55-.06-10.89-.06C230.09,26,233,30.24,236.35,34a20.19,20.19,0,0,1,5.51,15.73c-.5,9.25-.13,9.27-9.4,9.27-10.83,0-21.66-.14-32.48.08-3.34.06-4.8-.55-4.47-4.26a93.88,93.88,0,0,0,0-12c-.08-2.17.63-2.91,2.82-2.82,3.82.16,7.65,0,12.56,0Z"/><path d="M160.83,21.6c3.27,4.21,5.85,8.08,9,11.45A21.64,21.64,0,0,1,176,50.53c-.65,8.4-.15,8.44-8.73,8.44-11.32,0-22.64-.09-33.95.06-2.8,0-3.77-.68-3.6-3.55.3-5-1.54-11.21.84-14.53,2.24-3.12,9-.26,14.2-1.27-4.52-6.43-8.57-12.85-13.31-18.72s-2.25-12.4-2.81-18.65C128.46.51,130.2,1,131.23,1c14,0,28,0,42-.07,2.32,0,2.89.88,2.66,2.92-.09.82,0,1.66,0,2.49-.1,4.8,1.52,10.86-.8,14C172.84,23.38,166.37,20.78,160.83,21.6Z"/><path d="M61.76,1c15.94.23,31.88-.51,47.81.38-.06,5.15-.29,10.32-.13,15.47.08,2.82-.79,3.78-3.66,3.7-6.66-.18-13.33.09-20-.12-3.06-.09-4.13.82-3.93,3.93a82.59,82.59,0,0,1,0,12c-.27,3.34,1.15,3.82,4,3.74,6.66-.18,13.33.09,20-.13,2.93-.09,3.71.94,3.57,3.7-.19,4.15-.14,8.33,0,12.49.06,2.16-.69,2.87-2.86,2.86q-21.24-.12-42.48,0c-1.94,0-2.58-.6-2.57-2.55C61.63,38,61.68,19.49,61.76,1Z"/><path class="cls-3" d="M152.75,151.06c0-10.5.11-21-.06-31.49-.06-3.39.87-4.64,4.47-4.63q57.48.16,115,0c3.87,0,5,1.3,4.66,4.92q-1.53,15-2.84,30.12c-.78,8.74-1.42,17.49-2.2,26.23-1.25,14-2.78,28-3.76,42-.6,8.59-1.43,17.15-2.18,25.73-1.25,14.16-2.54,28.33-3.78,42.49-.8,9.23-1.48,18.49-2.29,27.72-1.2,13.67-2.53,27.33-3.83,41-.41,4.28-.24,8.57-.89,12.89-.49,3.21-1.9,4.17-4.43,4.91-13.7,4-27.39,8-41.09,11.95-16.73,4.83-33.49,9.57-50.21,14.42-6.56,1.9-6.53,2-6.54-4.6q0-14.74,0-29.5a4.46,4.46,0,0,1,2.49-2.28c20.06-6.7,40.39-12.52,60.5-19,11.9-3.86,11.4-1.05,12.69-15.81,1.82-20.88,3.56-41.76,5.54-62.63,1.09-11.59,2-23.2,3-34.8.24-2.76-.84-4.07-3.58-4.14-1.5,0-3-.05-4.49-.06-21.15,0-42.31,0-63.46,0-2.37,0-6.05.84-6.54-2s3.23-3.31,5.46-4.23c24-9.83,48.05-19.77,72.14-29.49,7.8-3.15,7.79-3.17,7.79-11.7,0-6.66,0-13.32,0-20,0-2,.33-4.05-1.25-5.67-1.94-1.46-4.18-.94-6.3-.95-25.62,0-51.24,0-76.85-.05C157.47,152.38,154.85,153,152.75,151.06Z"/><path class="cls-4" d="M65.78,263c-1.43-10.38-2.63-20.8-4.4-31.12-.59-3.46.52-4.62,3.36-5.84q39.17-16.85,78.25-33.9c1.68-.73,3.35-1.47,5.58-2.46-2-1.14-3.79-.71-5.41-.71-26.48,0-53-.07-79.45.09-3.52,0-4.82-.74-5.2-4.52-1-10.09-2.6-20.12-3.95-30.18-.11-.77-.58-1.61.28-2.28,1.37-.9,2.92-.49,4.38-.5q43.95,0,87.9,0c5.6,0,6,.3,6,5.86q.09,50.2,0,100.39c0,1.82.14,3.7-1.12,5.26-1.07.66-2.26.45-3.41.45q-39.74,0-79.47,0C68,263.47,66.8,263.74,65.78,263Z"/><path class="cls-4" d="M149.62,364.08q-33.87-9.22-67.75-18.47c-9.48-2.6-9.32-2.67-10.08-12.37-1.14-14.76-2.38-29.51-3.88-44.23-.42-4.11.41-5.49,4.8-5.33,9.31.36,18.64.25,28,0,3.37-.07,4.72,1,5,4.35.55,6.8,1.52,13.55,2.14,20.34.26,2.82,1.07,4.33,4.28,4.92,12.89,2.38,25.71,5.14,38.56,7.76a3,3,0,0,1,2.08,1.92c.93,12.56.35,25.13.3,37.7C153,362.59,152.8,365,149.62,364.08Z"/><path class="cls-5" d="M151.77,322l-1.13-.89c1.62-1.24,1.1-3,1.1-4.63,0-15.81-.1-31.62.1-47.43,0-3.91-1-5.13-5-5.1-25.13.18-50.27.11-75.4.05-1.89,0-4,.82-5.63-1,11.76.1,23.52.28,35.28.29,16.9,0,33.8-.13,50.7-.2a8,8,0,0,1,1.55-1c13.61-1.12,27.24-.5,40.85-.34,4.07,0,5.34,2,5,6.93-.55,7.29-1.41,14.55-2.12,21.83-.58,6-1.23,11.91-1.79,17.86-.54,5.63-1.94,7.35-7.41,8.36-11.44,2.11-22.76,4.88-34.36,6.08A3.66,3.66,0,0,1,151.77,322Z"/><path class="cls-6" d="M152.74,263.05h-1c0-35.16-.08-70.32.1-105.47,0-4.37-1.07-5.64-5.54-5.61-30.49.19-61,.09-91.48.07,1.6-1.35,3.51-.68,5.25-.68q43.6-.07,87.2,0c1.82,0,3.64-.16,5.46-.24q43.8.09,87.6.23c1.71,0,3.65-.82,5.17.76-2.4,2.13-5.35,1.53-8.12,1.54q-37.44.07-74.9,0c-8.09,0-8.11,0-8.12,7.93q0,46.44,0,92.87C154.35,257.37,154.88,260.48,152.74,263.05Z"/><path class="cls-7" d="M151.77,322l1,0c2.07,2.19,1.48,4.95,1.55,7.52.31,11.53-.57,23.08.6,34.59l-2.17,1.08c-1.07-.29-2.29-.15-3.12-1.12,3-.57,2.1-3,2.11-4.78C151.79,346.86,151.76,334.41,151.77,322Z"/><path class="cls-8" d="M154.91,364.12c-3-.55-2.12-2.95-2.12-4.76-.06-12.45,0-24.9,0-37.35,12.06-2.34,24.1-4.78,36.19-7,2.89-.52,4.35-1.49,4.63-4.6q1.93-21.36,4.2-42.68c.37-3.44-.48-4.61-4.13-4.57-13.64.13-27.27-.07-40.91-.15q0-52.2,0-104.4c0-6.55,0-6.55,6.34-6.55l86.42,0c.1,11.32.12,22.64.36,34,.07,3.15-2.27,3.27-4.13,4Q203,206,164.2,221.86a11.17,11.17,0,0,0-4.37,2.79h4.61c23.33,0,46.67.07,70-.08,3.49,0,4.58.8,4.24,4.44q-5,54.23-9.69,108.48c-.19,2.16-.11,3.92-3,4.81C202.23,349.43,178.58,356.81,154.91,364.12Z"/></g></g></svg>