<svg xmlns="http://www.w3.org/2000/svg" viewBox="0 0 304.94 430.55"><defs><style>.cls-1{fill:#f05931;}.cls-2{fill:#f8b19f;}.cls-3{fill:#fdfdfd;}.cls-4{fill:#f6f6f6;}.cls-5{fill:#231f20;}.cls-6{fill:#f37933;}.cls-7{fill:#ebecec;}.cls-8{fill:#f6e0d8;}.cls-9{fill:#f6dfd7;}.cls-10{fill:#fefefe;}</style></defs><title>html</title><g id="Calque_2" data-name="Calque 2"><g id="Calque_1-2" data-name="Calque 1"><path class="cls-1" d="M304.94,86.07q-2.67,30.84-5.35,61.68-3.24,36.57-6.57,73.11-4.33,48.26-8.67,96.49c-2.17,24.37-4.38,48.74-6.31,73.14-.35,4.41-1.58,6.48-6.21,7.73-37.87,10.26-75.65,20.84-113.42,31.44a20.56,20.56,0,0,1-11.66.08Q89.62,413.71,32.39,398c-3.08-.85-4.61-2-4.89-5.52-1.65-20.58-3.62-41.12-5.47-61.68q-4.35-48.49-8.68-97Q9.63,192,6,150.2C4.37,132.13,2.7,114.06,1.07,96,1,95.18,1,94.3,0,94V91c-.07-4.64,2.14-5.62,6.7-5.61q146.45.26,292.88.15C301.36,85.54,303.25,85,304.94,86.07Z"/><path class="cls-2" d="M304.94,86.07c-2.16-.06-4.32-.17-6.48-.17q-145.12,0-290.24-.12C3.91,85.78.73,86.07,0,91V85q62.49,0,125-.08,87.24,0,174.48,0C301.29,85,303.49,84,304.94,86.07Z"/><path class="cls-3" d="M176,0h25a1.66,1.66,0,0,1,.38,1.35c-3,6.25-6.93,12-10.66,17.83-1.66,2.6-3.38,2.51-4.89.09-3.66-5.87-7.7-11.52-10.39-17.95A2.16,2.16,0,0,1,176,0Z"/><path class="cls-4" d="M176,0V1A27.58,27.58,0,0,1,156,1c0-.33,0-.65,0-1Z"/><path class="cls-4" d="M201,.88V0h20l-.06,1.14C214.26,3.3,207.61,3.67,201,.88Z"/><path class="cls-5" d="M201,.88l19.94.26c0,18-.05,36,.1,54,0,3-.56,4.23-3.8,3.91-5.09-.5-11.93,2.12-14.83-1.06-2.52-2.75-.73-9.49-.79-14.47a55.71,55.71,0,0,0-.93-11.81c-3.35,5.17-6.83,10.25-10,15.54-1.89,3.16-3,3.69-5.11.09a91.66,91.66,0,0,0-10.88-15.08c0,7.55-.15,15.1.07,22.63.09,3.24-.78,4.44-4.15,4.17-4.78-.37-11,1.5-14-.88-3.14-2.52-1-9-.94-13.77.07-14.47-.56-28.95.31-43.41L176,1c4,6.48,7.93,13,12.18,19.9Z"/><path class="cls-5" d="M85.07,29.91c0,8.5-.1,17,.06,25.48.06,2.76-.65,3.8-3.55,3.64-4.32-.24-8.66-.16-13,0-2.16.07-2.92-.64-2.85-2.82.13-4.33-.17-8.67.1-13,.21-3.22-1.07-4.09-4-3.84-4.44.37-10.15-1.8-13,.87-2.65,2.47-1.05,8.23-.68,12.45.45,5.22-1.22,7.08-6.42,6.35-4.23-.6-9.95,1.8-12.41-1-2.1-2.37-.66-7.92-.67-12.07,0-13.65.09-27.31-.09-41-.05-3.29.88-4.32,4.13-4.09a104.26,104.26,0,0,0,12,0c2.52-.12,3.55.49,3.4,3.25-.23,4.32,0,8.66-.1,13-.07,2.15.58,3.15,2.8,2.81a2.78,2.78,0,0,1,.5,0c4.64-.11,10.67,1.5,13.53-.81,3-2.45,1-8.74.87-13.32C65.57,2.06,66.42.42,70.5.92c4.73.59,11.1-2,13.82,1,2.35,2.62.7,8.84.74,13.48C85.11,20.26,85.07,25.08,85.07,29.91Z"/><path class="cls-5" d="M120.51,1c7.82,0,15.64.08,23.46,0,2.3,0,3.27.48,3.16,3a127.72,127.72,0,0,0,0,13c.15,2.82-1,3.51-3.47,3.17a6.75,6.75,0,0,0-1.49,0c-3.93.32-9.13-1.75-11.43.87-1.93,2.21-.67,7.26-.7,11.06-.05,7.82-.14,15.65,0,23.46.07,2.88-.85,3.72-3.64,3.55A84.43,84.43,0,0,0,115,59c-3.42.26-4.56-.73-4.46-4.32.25-10.15,0-20.3.14-30.45,0-3.08-.57-4.86-4.06-4.2a2.09,2.09,0,0,1-.5,0c-4.08-.36-10.73,1.73-11.73-.81-1.93-4.92-.85-11.06-.8-16.69C93.6.14,95.76,1,97,1,104.87.94,112.69,1,120.51,1Z"/><path class="cls-5" d="M230.61,30c0-8.48.12-17-.06-25.44-.06-2.84.76-3.76,3.6-3.61a103.76,103.76,0,0,0,12.47,0c3-.19,3.47,1.09,3.44,3.72-.14,10.31.06,20.63-.13,30.93-.06,3.19.68,4.36,4.08,4.22,6.64-.27,13.3,0,19.95-.14,2.68-.07,3.45.83,3.31,3.41-.26,5.12,1.62,11.68-.89,15-2.4,3.13-9.34.82-14.27.9-9.31.16-18.63-.06-27.93.11-2.84,0-3.69-.77-3.63-3.62C230.73,46.93,230.61,38.45,230.61,30Z"/><path class="cls-6" d="M153,148.78c0-11.16.07-22.32-.09-33.47-.05-3.18.84-4.38,4.2-4.37q58,.14,115.92,0c3.09,0,4.23,1.06,4,4.07-.79,8.73-1.46,17.48-2.26,26.21-.87,9.38-1.86,18.75-2.75,28.12q-2,21-3.87,42c-.78,8.91-1.35,17.83-2.16,26.73-1.2,13.33-2.56,26.65-3.79,40-.79,8.57-1.42,17.16-2.2,25.73-1.25,13.83-2.61,27.65-3.83,41.48-.8,9.06-1.62,18.14-2.06,27.23-.14,2.93-.83,4.53-3.78,5.34-30.86,8.41-61.72,16.84-92.51,25.49-4.19,1.18-4.92-.07-4.87-3.82.15-9.49.06-19,.05-28.48,0-2,.29-4-1-5.79.76-1.39,2.18-1.76,3.5-2.28,22.54-6.47,45.17-12.62,67.77-18.86,4.34-1.2,6.41-3.27,6.76-7.78,1-13.25,2.27-26.48,3.51-39.71Q236,270.79,238.06,245c.44-5.47,2.64-11,.24-16.57-1.93-1.47-4.18-.95-6.29-1-24,0-47.92,0-71.87,0-2.46,0-5,.45-7.28-1.07-1.7-2.14-1.41-4.7-1.43-7.16-.06-7.8,0-15.61,0-23.41,0-5.76-.4-6.11-6.32-6.14-12.95-.05-25.9,0-38.85,0-2.45,0-5,.35-7.16-1.41.56-3.43,3.46-2.64,5.46-2.66,15.61-.12,31.22-.27,46.83,0,.63,0,1.27,0,1.91,0,26.64-.24,53.28,0,79.92-.11,1.83,0,3.66,0,5.49,0,3,.05,4.53-1.23,4.93-4.32,1.16-8.91,1.56-17.9,2.44-26.84.23-2.32-1-3.32-3.19-3.52-1.83-.16-3.66-.13-5.49-.13q-37.47,0-74.94,0c-2.65,0-5.33.26-7.93-.58A3,3,0,0,1,153,148.78Z"/><path class="cls-7" d="M152,186.92c-15.91.06-31.83.09-47.75.23-1.68,0-3.64-.91-5.08.84,2.09,4.11,1.82,8.65,2.32,13,.71,6.24.86,12.53,1.71,18.76.22,1.63.26,3.33,1.46,4.65,1.69,1.53,3.77,1.12,5.73,1.12,12,0,24,0,36,.05,6,0,7,1,7,7,.09,8.66.06,17.31,0,26,0,2,.27,4.05-1.42,5.61q-40.73.07-81.44.18c-2.5,0-3.42-.74-3.64-3.35q-3.87-45.27-8-90.5c-.52-5.8-1.08-11.6-1.75-17.39-.32-2.71-.15-4.21,3.4-4.19,30.48.19,61,.19,91.43.24,1.34,1.28,1.39,3,1.4,4.64q.09,14.23,0,28.47C153.38,184,153.27,185.62,152,186.92Z"/><path class="cls-7" d="M149.74,364.14q-26.9-7.33-53.8-14.66c-6.25-1.71-12.45-3.58-18.72-5.2-2-.53-3.06-1.32-3.26-3.6q-2.29-26.82-4.87-53.63c-.27-2.89.64-3.75,3.5-3.72,10.15.14,20.3.22,30.45,0,3.6-.09,4.56,1.41,4.79,4.58.55,7.46,1.51,14.89,1.86,22.36.15,3.21,1.58,4.11,4.33,4.83,12.36,3.24,24.67,6.7,37,10.08a4.13,4.13,0,0,1,2.3,4.06c.14,10.55.22,21.1-.06,31.64C153.21,362.83,152.81,365.08,149.74,364.14Z"/><path class="cls-6" d="M153,324.85q0-29.94,0-59.89c1.44-1.48,3.32-1.34,5.12-1.34q17.87-.08,35.74,0c3.15,0,6.11.29,6.47,4.4-.28,10.13-1.45,20.21-2.44,30.29-.4,4.13-.17,8.33-1.25,12.4-.57,2.19-1.28,4.34-3.63,5-12.79,3.6-25.4,7.87-38.56,10.1A2.58,2.58,0,0,1,153,324.85Z"/><path class="cls-8" d="M199.14,269c0-2.38.09-4.37-3.56-4.3-14.19.27-28.39.2-42.59.26l-1-.79c0-10.61-.22-21.23.14-31.83.16-4.63-1.52-5.49-5.7-5.41-13.1.24-26.2.12-39.3,0-1.7,0-3.7.79-5-1.12,1.79-1.56,4-1.44,6.12-1.45q19.34-.07,38.66,0c2.14,0,4.33-.08,6.12,1.46q41.46.07,82.91.21c1.66,0,3.67-1,5,.94-2.4,2.08-5.34,1.54-8.12,1.55-23.45.05-46.91,0-70.37,0-7.65,0-7.79.18-7.81,7.83,0,6.82.12,13.64,0,20.46-.09,4.12,1.68,5.57,5.65,5.54,10.82-.08,21.63-.05,32.44,0,2,0,4-.13,5.92.66C201.42,264.27,201.57,266.16,199.14,269Z"/><path class="cls-9" d="M153,324.85l1,.25c1.22,5.23.29,10.53.5,15.8.31,7.75-.54,15.55.74,23.28-.87,1-2.14.77-3.25,1l-2.26-1.07c1.24-.25,2.23-.79,2.22-2.24q-.12-17.7-.31-35.4c0-.45-.41-.9-.63-1.35Z"/><path class="cls-8" d="M152,186.92q0-18.87,0-37.76l1.05-.38-.06.4c1.46,1.38,1.56,3.22,1.58,5q.16,13.83,0,27.65c0,1.82-.17,3.64-1.53,5.07Z"/><path class="cls-10" d="M155.25,364.18a2.46,2.46,0,0,1-2.25-2.72c0-11.36,0-22.72.1-34.09a7.06,7.06,0,0,1,.91-2.27c12.33-3.36,24.65-6.81,37-10,2.76-.72,4.11-1.68,4.36-4.84,1.07-13.75,2.47-27.48,3.75-41.22,1.93-3.6.86-5.13-3.22-5.11-12.82.08-25.65-.08-38.47.1-3.51.05-4.6-1.05-4.52-4.53.21-9.16.26-18.33,0-27.48-.11-4,1.11-5.08,5.06-5,27.65.16,55.29.09,82.93.09-1,12.92-1.94,25.85-3.09,38.75-2.18,24.67-4.5,49.33-6.72,74-.18,2-.13,3.7-2.83,4.43C203.89,350.76,179.58,357.5,155.25,364.18Z"/><path class="cls-10" d="M153,186.93,153,149.18c30.64-.06,61.28-.08,91.92-.23,2.88,0,3.29,1.15,3.06,3.57-1,10.6-2.09,21.2-2.88,31.82-.27,3.61-2.65,2.74-4.61,2.74q-28.25.06-56.47,0C173.67,187.08,163.35,187,153,186.93Z"/><path class="cls-1" d="M153,225.87h-50.9c-1-10.82-2-21.64-2.89-32.46-.16-1.79,0-3.61,0-5.41,16.28,0,32.57.13,48.85-.07,3.93,0,5.16,1.07,5.07,5.05C152.82,203.93,153,214.9,153,225.87Z"/></g></g></svg>