<svg xmlns="http://www.w3.org/2000/svg" viewBox="0 0 304.95 430.86"><defs><style>.cls-1{fill:#f48133;}.cls-2{fill:#f9c5a1;}.cls-3{fill:#f5f5f5;}.cls-4{fill:#f89c34;}.cls-5{fill:#ebecec;}.cls-6{fill:#fefefe;}</style></defs><title>js</title><g id="Calque_2" data-name="Calque 2"><g id="Calque_1-2" data-name="Calque 1"><path class="cls-1" d="M305,93c-2.59,7.61-2.14,15.61-2.9,23.44-2.77,28.49-5.23,57-7.77,85.52q-3.18,35.55-6.31,71.12-3.84,43-7.73,86c-1,11.27-2.13,22.54-3,33.82-.21,2.79-1.16,4-3.84,4.74Q214.06,414,154.72,430.52a9.62,9.62,0,0,1-5.37-.08Q90.49,414.07,31.59,397.83c-3-.81-4.28-2.18-4.56-5.41q-5-58.69-10.22-117.38C13,232.11,9,189.19,5.16,146.25,3.37,126.2,1.72,106.13,0,86.07c1.7-1.06,3.58-.53,5.37-.53q146.43,0,292.88-.15c4.56,0,6.77,1,6.7,5.61Z"/><path class="cls-2" d="M305,91c-.72-5-4-5.2-8.27-5.2q-145.1.2-290.2.1c-2.16,0-4.32.11-6.48.17C.92,84.26,2.62,85,4,85q150.48,0,301,0Z"/><path class="cls-3" d="M208,0c0,.41-.08.83-.11,1.24-1.68,1.39-3.71,1.33-5.69,1.34q-18.18.09-36.37,0c-2,0-4,.07-5.7-1.3C160,.86,160,.43,160,0Z"/><path class="cls-3" d="M144,0l-.13,1.28A31.84,31.84,0,0,1,124,1.21L124,0Z"/><path d="M160.08,1.28c15.92-.49,31.84-.41,47.76,0,0,5.66-.15,11.32,0,17,.07,2.44-.77,3.22-3.14,3.12-3.66-.15-7.32,0-12.27,0,3.33,4.29,5.69,8.53,9.13,11.52,7.77,6.74,6.16,15.48,6.25,24,0,2.33-1.45,2.16-3,2.16-13.48,0-27,0-40.44,0-2.25,0-2.83-.8-2.77-2.89.12-4.32.22-8.66,0-13-.16-2.9,1.17-3.25,3.53-3.16,3.61.15,7.23,0,11.75,0-4.27-6-7.85-11.57-11.94-16.71-3.59-4.51-5.55-9.23-4.8-15.06A50.86,50.86,0,0,0,160.08,1.28Z"/><path d="M124,1.21a161.16,161.16,0,0,1,19.78.07c0,17.8-.17,35.6,0,53.4,0,3.54-1,4.43-4.43,4.37-13-.2-25.95-.16-38.93,0-2.78,0-3.69-.69-3.6-3.55q.32-10,0-20c-.09-2.88,1.17-3.26,3.56-3.18a116.56,116.56,0,0,0,12,0c3.07-.19,4.39.78,3.87,3.89-.59,3.58,1.7,3.43,4.23,3.56,2.87.15,3.68-.79,3.64-3.63C124,24.5,124,12.85,124,1.21Z"/><path class="cls-4" d="M152,257.69c0-47,.07-94-.1-141,0-4.6,1.23-5.86,5.83-5.84,38,.19,76,.1,114,.11,5.6,0,5.58.43,4.84,6.1-1.15,8.85-1.73,17.77-2.55,26.67-1.29,13.83-2.62,27.66-3.85,41.49-.79,8.91-1.37,17.83-2.17,26.73-1.21,13.34-2.56,26.67-3.79,40-.79,8.58-1.44,17.16-2.2,25.73-1.26,14.17-2.59,28.33-3.84,42.5-.77,8.74-1.52,17.48-2.13,26.23-.63,8.92-2.09,17.77-2.13,26.74,0,2.63-1.79,4.06-4.34,4.76Q203.23,390.67,157,403.54c-5.12,1.44-5.06-1.27-5.06-4.88Q152,328.18,152,257.69Z"/><path class="cls-5" d="M144.09,256.29c0,33.82-.08,67.64.1,101.46,0,4.44-.86,5.18-5.16,3.93-19.8-5.74-39.68-11.22-59.58-16.6-3.72-1-5.78-2.26-6.09-6.7-1.18-16.76-2.83-33.49-4.44-50.22-.36-3.63.66-4.79,4.33-4,5.19,1.14,10.44,2.15,15.71,2.78,3.37.4,4.52,2.09,4.7,5.15.28,4.65.8,9.29,1,13.94.1,2.39,1,3.52,3.38,4.09,5.16,1.26,10.3,2.7,15.36,4.33,2.87.92,3.91.4,3.79-2.76-1-28.13-1.92-56.26-2.88-84.39-.39-11.49-.84-23-1.21-34.45-.43-13.15-.7-26.31-1.27-39.45-.15-3.47.74-4.64,4.33-4.51,7.66.26,15.34.38,23,0,4.52-.25,5,1.57,5,5.43C144,188.31,144.09,222.3,144.09,256.29Z"/><path class="cls-6" d="M159.09,206.5c0-17.49.09-35-.07-52.46,0-3.66.54-5.19,4.79-5.15,26.49.22,53,.18,79.45,0,3.77,0,4.74.72,4.2,4.72-1.21,9.06-1.85,18.21-2.45,27.34-.19,3.05-.91,4.36-4.3,4.39-14.15.12-28.3.68-42.46.78-3.85,0-5.19,1.13-5.24,5.09-.12,10.15-.59,20.31-1.19,30.44-.2,3.46.71,4.6,4.31,4.54,13.49-.2,27,0,40.47-.15,3.6,0,4.41.93,4.06,4.54-2.4,24.84-4.54,49.71-6.76,74.57-1,11.6-2.12,23.19-3,34.81-.2,2.58-1.17,3.73-3.68,4.41q-32.47,8.85-64.88,18c-2.41.68-3.3.41-3.28-2.28.09-11.16.14-22.32,0-33.48-.05-3,1.63-3.51,3.87-4.07,12.1-3,24.15-6.2,36.29-9.06,3.28-.77,4.56-2,4.8-5.56,1-14.27,2.28-28.53,3.65-42.77.31-3.16-.28-3.9-3.63-3.62-13.11,1.06-26.26,1.5-39.36,2.65-5,.43-5.71-1.36-5.65-5.72C159.22,241.14,159.09,223.82,159.09,206.5Z"/></g></g></svg>