<svg xmlns="http://www.w3.org/2000/svg" width="197" height="130" viewBox="0 0 197 130"><g transform="translate(515 -266)"><g transform="translate(-448 266)" fill="none" stroke="#7aac7a" stroke-width="3"><rect width="63" height="63" stroke="none"/><rect x="1.5" y="1.5" width="60" height="60" fill="none"/></g><g transform="translate(-448 333)" fill="none" stroke="#7aac7a" stroke-width="3"><rect width="63" height="63" stroke="none"/><rect x="1.5" y="1.5" width="60" height="60" fill="none"/></g><g transform="translate(-381 333)" fill="#7aac7a" stroke="#7aac7a" stroke-width="3"><rect width="63" height="63" stroke="none"/><rect x="1.5" y="1.5" width="60" height="60" fill="none"/></g><g transform="translate(-365 348.547)"><path d="M15.8,0,12.926,2.872,23.8,13.747H0v4.1H23.8L12.926,28.725,15.8,31.6,31.6,15.8Z" fill="#fff"/></g><g transform="translate(-515 333)" fill="#7aac7a" stroke="#7aac7a" stroke-width="3"><rect width="63" height="63" stroke="none"/><rect x="1.5" y="1.5" width="60" height="60" fill="none"/></g><g transform="translate(-467.403 380.144) rotate(180)"><path d="M15.8,0,12.926,2.872,23.8,13.747H0v4.1H23.8L12.926,28.725,15.8,31.6,31.6,15.8Z" fill="#fff"/></g></g></svg>